<svg xmlns="http://www.w3.org/2000/svg" xmlns:xlink="http://www.w3.org/1999/xlink" version="1.1" baseProfile="tiny" x="0px" y="0px" width="100px" height="100px" viewBox="0 0 100 100" xml:space="preserve">
<g id="Captions">
</g>
<g id="Your_Icon">
	<path fill-rule="evenodd" fill="#000000" d="M35.582,12c-5.42,0-6.58,1.26-6.58,6.699v63.182c0,4.361-0.141,6.041,2.16,6.121   c1.559,0,3.039-1.359,4.24-2.58c0,0,14.537-17.101,15.498-17.46c0.561-0.221-0.021-0.262-0.041-0.16   c-0.02,0.02,0.041,0.078,0.24,0.16c0.961,0.359,15.5,17.46,15.5,17.46c1.199,1.221,2.68,2.58,4.238,2.58   c2.301-0.08,2.16-1.76,2.16-6.121V18.699c0-5.439-1.16-6.699-6.578-6.699H35.582z"/>
</g>
</svg>