<?xml version="1.0" encoding="utf-8"?>
<!-- Generator: Adobe Illustrator 16.0.4, SVG Export Plug-In . SVG Version: 6.00 Build 0)  -->
<!DOCTYPE svg PUBLIC "-//W3C//DTD SVG 1.1//EN" "http://www.w3.org/Graphics/SVG/1.1/DTD/svg11.dtd">
<svg version="1.1" id="Layer_1" xmlns="http://www.w3.org/2000/svg" xmlns:xlink="http://www.w3.org/1999/xlink" x="0px" y="0px"
	 width="108px" height="108px" viewBox="0 0 108 108" enable-background="new 0 0 108 108" xml:space="preserve">
<path fill="none" stroke="#000000" stroke-width="7" stroke-miterlimit="10" d="M103.041,91.918c0,6.278-5.089,11.366-11.367,11.366
	H16.089c-6.278,0-11.367-5.088-11.367-11.366V25.805c0-6.278,5.088-11.367,11.367-11.367h75.584c6.278,0,11.367,5.089,11.367,11.367
	V91.918z"/>
<polygon points="103.041,36.639 4.723,36.639 4.723,27.679 7.76,18.082 18.27,14.438 90.113,14.438 100.149,17.329 103.041,27.505 
	"/>
<line fill="none" stroke="#000000" stroke-width="5" stroke-miterlimit="10" x1="4.723" y1="58.803" x2="103.041" y2="58.803"/>
<line fill="none" stroke="#000000" stroke-width="5" stroke-miterlimit="10" x1="4.723" y1="80.649" x2="103.041" y2="80.649"/>
<line fill="none" stroke="#000000" stroke-width="5" stroke-miterlimit="10" x1="53.608" y1="31.133" x2="53.608" y2="103.284"/>
<line fill="none" stroke="#000000" stroke-width="5" stroke-miterlimit="10" x1="28.275" y1="31.133" x2="28.275" y2="103.284"/>
<line fill="none" stroke="#000000" stroke-width="5" stroke-miterlimit="10" x1="79.34" y1="32.004" x2="79.34" y2="103.284"/>
<path fill="#FFFFFF" stroke="#000000" stroke-width="5" stroke-miterlimit="10" d="M36.5,23.913c0,3.224-3.184,5.837-7.112,5.837
	l0,0c-3.928,0-7.112-2.614-7.112-5.837V9.837C22.275,6.614,25.459,4,29.388,4l0,0C33.316,4,36.5,6.614,36.5,9.837V23.913z"/>
<path fill="#FFFFFF" stroke="#000000" stroke-width="5" stroke-miterlimit="10" d="M84.5,23.912c0,3.225-3.184,5.838-7.112,5.838
	l0,0c-3.929,0-7.112-2.613-7.112-5.838V9.837C70.275,6.614,73.459,4,77.388,4l0,0C81.316,4,84.5,6.614,84.5,9.837V23.912z"/>
</svg>
