<?xml version="1.0" encoding="utf-8"?>
<!-- Generator: Adobe Illustrator 15.1.0, SVG Export Plug-In . SVG Version: 6.00 Build 0)  -->
<!DOCTYPE svg PUBLIC "-//W3C//DTD SVG 1.1//EN" "http://www.w3.org/Graphics/SVG/1.1/DTD/svg11.dtd">
<svg version="1.1" id="Layer_1" xmlns="http://www.w3.org/2000/svg" xmlns:xlink="http://www.w3.org/1999/xlink" x="0px" y="0px"
	 width="100px" height="77px" viewBox="0 0 100 77" enable-background="new 0 0 100 77" xml:space="preserve">
<path d="M50,32c-7.168,0-13,5.832-13,13c0,7.168,5.832,13,13,13s13-5.832,13-13C63,37.832,57.168,32,50,32z"/>
<path d="M87,13H72c0-7.18-5.82-13-13-13H41c-7.18,0-13,5.82-13,13H13C5.82,13,0,18.82,0,26v38c0,7.18,5.82,13,13,13h74
	c7.18,0,13-5.82,13-13V26C100,18.82,94.18,13,87,13z M50,68c-12.683,0-23-10.318-23-23c0-12.682,10.317-23,23-23s23,10.318,23,23
	C73,57.682,62.683,68,50,68z"/>
</svg>
