<?xml version="1.0" encoding="utf-8"?>
<!-- Generator: Adobe Illustrator 16.0.4, SVG Export Plug-In . SVG Version: 6.00 Build 0)  -->
<!DOCTYPE svg PUBLIC "-//W3C//DTD SVG 1.1//EN" "http://www.w3.org/Graphics/SVG/1.1/DTD/svg11.dtd">
<svg version="1.1" id="Layer_1" xmlns="http://www.w3.org/2000/svg" xmlns:xlink="http://www.w3.org/1999/xlink" x="0px" y="0px"
	 width="108px" height="108px" viewBox="0 0 108 108" enable-background="new 0 0 108 108" xml:space="preserve">
<path d="M106.183,11.334c0,0-7.382-0.978-18.825,1.143c-2.933,1.936-4.946,3.576-4.946,3.576l1.38-2.835
	c-7.174,1.639-15.617,4.494-24.729,9.393c-1.303,2.645-2.614,5.868-2.808,8.728c0,0-0.661-2.846-1.001-6.576
	c-2.129,1.251-4.271,2.595-6.452,4.096c-3.079,2.105-5.755,4.291-8.219,6.507c-0.479,4.231-0.863,9.762,0.113,12.542
	c0,0-2.113-3.114-3.326-9.5C22.162,53.771,19.834,69.894,19.506,75.656C9.056,90.225,2.987,101.244,2.987,101.244
	s3.072-2.4,5.523-4.271c0,0,4.085-7.358,13.257-19.908c4.113-1.595,13.291-5.808,23.708-14.832c-2.312-0.95-4.453-2.26-5.229-4.026
	c0,0,3.032,0.959,8.417,1.127c3.688-3.448,7.439-7.522,11.14-12.272c-4.227-0.756-5.563-2.166-5.563-2.166
	c1.691,0.267,4.823-0.037,7.579-0.413c1.31-1.781,2.617-3.646,3.902-5.599c2.116-3.229,4.348-6.08,6.644-8.616
	c-3.264-0.337-3.963-1.213-3.963-1.213l6.885-1.783C90.151,12.937,106.183,11.334,106.183,11.334z"/>
</svg>
