<?xml version="1.0" encoding="utf-8"?>
<!-- Generator: Adobe Illustrator 16.0.4, SVG Export Plug-In . SVG Version: 6.00 Build 0)  -->
<!DOCTYPE svg PUBLIC "-//W3C//DTD SVG 1.1//EN" "http://www.w3.org/Graphics/SVG/1.1/DTD/svg11.dtd">
<svg version="1.1" id="Layer_1" xmlns="http://www.w3.org/2000/svg" xmlns:xlink="http://www.w3.org/1999/xlink" x="0px" y="0px"
	 width="100px" height="100px" viewBox="0 0 100 100" enable-background="new 0 0 100 100" xml:space="preserve">
<g>
	<path d="M15.796,45.238c-4.977-0.02-9.953,0.008-14.929-0.014c20.303-21.587,0,0,20.303-21.587c20.286,21.577,0,0,20.286,21.577
		c-4.971,0.05-9.942-0.012-14.913,0.03c-0.019,6.84-0.011,13.68-0.004,20.52c5.374,0.048,25.626-0.006,31.001,0.028
		c3.46,3.608,7.029,7.113,10.452,10.756c-11.321,0-35.296,0.025-52.196,0.025L15.796,45.238z"/>
</g>
<g>
	<path d="M84.717,54.973c4.978,0.02,9.952-0.008,14.93,0.014c-20.302,21.587,0,0-20.302,21.587c-20.287-21.577,0,0-20.287-21.577
		c4.971-0.049,9.942,0.012,14.914-0.029c0.02-6.84,0.01-13.68,0.003-20.52c-5.373-0.047-25.625,0.006-31.001-0.028
		c-3.459-3.608-7.028-7.114-10.452-10.756c11.323,0,35.296-0.026,52.197-0.026L84.717,54.973z"/>
</g>
</svg>
